<svg width="34" height="33" viewBox="0 0 34 33" fill="none" xmlns="http://www.w3.org/2000/svg">
<path d="M2 13.4138L4.07219 11.6897M32 13.4138L29.9055 11.6897M29.9055 11.6897L18.1977 2.05196C17.4563 1.44161 16.3856 1.44442 15.6474 2.05866L4.07219 11.6897M29.9055 11.6897V29C29.9055 30.1046 29.0101 31 27.9055 31H20.9305M4.07219 11.6897L4.08418 29.0014C4.08494 30.1054 4.98015 31 6.08418 31H13.0695M20.9305 31V20.4138C20.9305 19.3092 20.0351 18.4138 18.9305 18.4138H15.0695C13.9649 18.4138 13.0695 19.3092 13.0695 20.4138V31M20.9305 31H13.0695" stroke="black" stroke-width="3" stroke-linecap="round"/>
</svg>
